<?xml version="1.0" encoding="UTF-8"?>
<svg id="Ebene_1" data-name="Ebene 1" xmlns="http://www.w3.org/2000/svg" viewBox="0 0 1000 1000">
  <defs>
    <style>
      .cls-1 {
        fill: #fff;
      }
    </style>
  </defs>
  <path class="cls-1" d="m735.15,481.91c0,4.47-4.01,7.6-11.3,7.6-8.48,0-15.47-5.21-17.55-13.1l-22.17,2.53c2.53,17.26,18.9,28.26,39.57,28.26s34.51-11.75,34.51-27.96c0-37.19-49.38-19.48-49.38-33.47,0-4.02,3.87-6.11,9.67-6.11h35.41l-2.68-20.52h-31.39c-19.78,0-34.36,10.56-34.36,26.63,0,34.36,49.68,19.78,49.68,36.14Z"/>
  <path class="cls-1" d="m720.64,561.17v-35.11h-23.51v111.26h23.51v-49.09c0-10.25,5.95-17.69,15.62-17.69,8.77,0,14.57,5.95,14.57,15.47v51.32h23.51v-56.37c0-19.34-12.8-31.68-30.94-31.68-9.52,0-17.41,4.32-22.76,11.9Z"/>
  <path class="cls-1" d="m412.87,314.3h-46.41v20.23h20.08c-2.38,11.45-11.01,18.44-25.43,18.44-18.29,0-31.09-14.28-31.09-35.26s12.65-34.95,29.3-34.95c13.54,0,23.36,9.07,25.88,21.57l24.55-4.61c-3.87-23.94-24.55-39.27-48.79-39.27-32.28,0-55.78,23.95-55.78,57.26s23.65,57.57,55.93,57.57c35.25,0,53.85-23.35,51.76-60.98Z"/>
  <path class="cls-1" d="m465.41,375.28c25.43,0,41.65-17.24,41.65-44.92s-16.22-44.92-41.65-44.92-41.8,17.56-41.8,44.92,16.5,44.92,41.8,44.92Zm0-68.56c11.01,0,18.14,8.77,18.14,23.64s-7.14,23.65-18.14,23.65-18.15-8.63-18.15-23.65,7.29-23.64,18.15-23.64Z"/>
  <path class="cls-1" d="m557.95,375.29c25.43,0,41.64-17.25,41.64-44.92s-16.21-44.92-41.64-44.92-41.8,17.56-41.8,44.92,16.52,44.92,41.8,44.92Zm0-68.57c11,0,18.15,8.77,18.15,23.65s-7.15,23.65-18.15,23.65-18.15-8.63-18.15-23.65,7.3-23.65,18.15-23.65Z"/>
  <path class="cls-1" d="m646.33,375.29c9.67,0,18.29-4.75,23.49-12.94l1.5,11.16h20.67v-111.26h-23.5v34.21c-5.36-6.99-13.24-11.01-22.16-11.01-22.01,0-37.63,17.84-37.63,44.92s15.77,44.92,37.63,44.92Zm4.31-68.57c10.86,0,17.85,9.22,17.85,23.65s-7,23.65-17.85,23.65-18.29-8.93-18.29-23.65,7.29-23.65,18.29-23.65Z"/>
  <path class="cls-1" d="m300.26,507.19c35.25,0,53.85-23.35,51.76-60.98h-46.41v20.23h20.08c-2.38,11.46-11.01,18.44-25.44,18.44-18.29,0-31.09-14.28-31.09-35.25s12.65-34.96,29.3-34.96c13.54,0,23.36,9.08,25.88,21.57l24.55-4.6c-3.87-23.95-24.55-39.27-48.79-39.27-32.28,0-55.78,23.95-55.78,57.27s23.65,57.56,55.93,57.56Z"/>
  <path class="cls-1" d="m416.6,495l1.34,10.41h20.68v-53.1c0-20.68-15.62-34.96-39.42-34.96-17.85,0-35.7,10.71-38.82,29.45l22.01,2.53c2.23-7.59,9.22-12.2,16.81-12.2,9.82,0,15.92,5.8,15.92,15.18v.59h-12.05c-22.17,0-36.59,9.67-36.59,28.56,0,16.36,11.89,25.73,26.92,25.73,9.97,0,18.45-4.75,23.2-12.19Zm-26.77-16.51c0-6.85,5.21-10.57,14.43-10.57h10.86v2.98c0,8.18-5.95,16.81-14.58,16.81-6.25,0-10.71-3.72-10.71-9.22Z"/>
  <path class="cls-1" d="m530.27,505.41v-49.09c0-10.25,5.51-17.85,14.43-17.85,8.04,0,13.24,6.1,13.24,15.62v51.32h23.65v-56.37c0-19.48-12.34-31.69-29.74-31.69-10.26,0-19.04,4.61-25.58,14.58-4.91-9.22-14.13-14.58-25.59-14.58-9.82,0-17.99,5.06-23.06,13.84l-1.34-12.04h-20.82v86.27h23.5v-49.09c0-10.25,5.66-17.85,14.43-17.85,8.18,0,13.38,6.1,13.38,15.62v51.32h23.5Z"/>
  <path class="cls-1" d="m636.96,507.19c19.04,0,35.4-10.11,38.82-28.11l-21.86-4.17c-2.08,7.29-8.63,11.6-16.96,11.6-11.9,0-19.2-9.07-20.39-20.37h57.72c4.61-27.96-12.65-48.79-39.12-48.79s-41.2,20.37-41.2,44.92,17.11,44.92,42.99,44.92Zm-1.35-70.8c9.23,0,16.07,5.8,16.51,14.57h-34.65c2.53-9.22,9.52-14.57,18.14-14.57Z"/>
  <polygon class="cls-1" points="293.04 611.6 264.18 526.06 227.89 526.06 227.89 637.33 252.28 637.33 252.28 552.54 257.79 571.73 280.1 637.33 305.53 637.33 328.3 571.28 333.65 552.54 333.65 637.33 357.9 637.33 357.9 526.06 321.9 526.06 293.04 611.6"/>
  <path class="cls-1" d="m576.93,542.13c8.62,0,14.72-5.8,14.72-13.98s-6.1-13.98-14.72-13.98-14.59,5.8-14.59,13.98,6.1,13.98,14.59,13.98Z"/>
  <path class="cls-1" d="m400.78,647.29v-10.45h10.46v-10.46h31.36v-10.45h41.82v31.36h20.9v-10.45h-10.45v-20.91h-.08v-30.5c1.04-8.79,6.69-14.88,15.47-14.88s14.57,5.94,14.57,15.47v50.83h-9.04v10.45h73.19v-10.45h-52.27v-20.91h41.82v10.45h31.37v-4.61c1.1,1.63,2.25,3.2,3.57,4.61h-3.57v10.46h10.45v-4.6c3.08,2.02,6.6,3.46,10.32,4.6h-10.32v10.45h20.91v-8.52c1.33.1,2.58.34,3.96.34,21.87,0,37.94-13.08,40.16-32.87l-23.21-3.42c-1.19,9.07-7.88,15.02-16.96,15.02-11.75,0-19.48-9.08-19.48-23.65s7.73-23.65,19.48-23.65c8.33,0,14.58,6.39,15.47,15.61l22.91-2.81c-1.94-20.23-17.26-34.07-38.38-34.07-26.03,0-43.13,17.56-43.13,44.92,0,8.25,1.72,15.47,4.6,21.73h-18v-64.87h-23.5v54.41h-16.83v-24.52c0-19.34-12.8-31.68-30.94-31.68-10.26,0-18.75,5.06-23.95,13.83l-1.48-12.04h-20.68v54.41h-17.71v-54.41h-23.51v49.08c0,7.19-2.94,12.95-8.01,15.79h-10.81v1.63c-6.95-1.3-11.37-6.87-11.37-15.17v-51.32h-23.5v56.37c0,14.5,7.23,25.02,18.49,29.4h-15v10.45h20.91Z"/>
  <path class="cls-1" d="m505.33,657.75v10.45h-20.91v-20.91h-10.46v31.37h31.36v20.91h-41.82v-10.46h-20.91v10.46h10.45v10.45h-10.45v20.91h10.45v10.45h41.82v10.46h10.46v-20.91h10.45v-20.91h52.28v-10.45h-52.28v-20.91h-10.45v-10.46h10.45v-20.91h-10.46v10.46Zm0,62.73v10.45h-52.27v-20.91h52.27v10.46Zm10.46-20.91v10.45h-10.45v-10.45h10.45Z"/>
  <rect class="cls-1" x="463.51" y="678.65" width="10.45" height="10.45"/>
  <rect class="cls-1" x="484.42" y="751.84" width="10.45" height="10.46"/>
  <rect class="cls-1" x="442.6" y="647.29" width="10.45" height="10.45"/>
  <polygon class="cls-1" points="432.15 668.2 432.15 678.65 432.15 689.11 442.6 689.11 442.6 678.65 442.6 668.2 442.6 657.75 432.15 657.75 432.15 668.2"/>
  <rect class="cls-1" x="411.24" y="574.11" width="10.45" height="10.45"/>
  <rect class="cls-1" x="458.29" y="574.11" width="10.45" height="10.45"/>
  <rect class="cls-1" x="591.65" y="574.11" width="10.46" height="10.45"/>
  <rect class="cls-1" x="552.38" y="574.11" width="10.45" height="10.45"/>
  <rect class="cls-1" x="473.97" y="783.21" width="10.46" height="10.45"/>
  <rect class="cls-1" x="442.6" y="783.21" width="10.46" height="10.45"/>
  <rect class="cls-1" x="421.69" y="793.66" width="10.46" height="10.46"/>
  <rect class="cls-1" x="463.51" y="793.66" width="10.45" height="10.46"/>
  <rect class="cls-1" x="453.06" y="804.12" width="10.45" height="10.45"/>
  <rect class="cls-1" x="536.7" y="783.21" width="10.45" height="10.45"/>
  <rect class="cls-1" x="568.06" y="783.21" width="10.46" height="10.45"/>
  <rect class="cls-1" x="588.98" y="793.66" width="10.45" height="10.46"/>
  <rect class="cls-1" x="505.34" y="783.21" width="10.45" height="10.45"/>
  <rect class="cls-1" x="505.34" y="804.12" width="10.45" height="10.45"/>
  <rect class="cls-1" x="505.34" y="594.8" width="10.45" height="10.45"/>
  <rect class="cls-1" x="547.15" y="793.66" width="10.46" height="10.46"/>
  <rect class="cls-1" x="557.61" y="804.12" width="10.45" height="10.45"/>
  <polygon class="cls-1" points="547.15 730.93 536.7 730.93 526.25 730.93 515.79 730.93 515.79 741.39 515.79 751.84 526.25 751.84 526.25 741.39 536.7 741.39 547.15 741.39 557.61 741.39 568.06 741.39 568.06 730.93 557.61 730.93 547.15 730.93"/>
  <rect class="cls-1" x="526.25" y="751.84" width="10.45" height="10.46"/>
  <polygon class="cls-1" points="547.16 668.2 536.7 668.2 526.24 668.2 515.78 668.2 515.78 678.65 526.24 678.65 536.7 678.65 547.16 678.65 557.61 678.65 568.07 678.65 568.07 668.2 557.61 668.2 547.16 668.2"/>
  <polygon class="cls-1" points="620.34 751.84 609.88 751.84 609.88 762.3 599.43 762.3 588.97 762.3 578.52 762.3 568.06 762.3 557.61 762.3 547.15 762.3 536.7 762.3 536.7 772.75 547.15 772.75 557.61 772.75 568.06 772.75 578.52 772.75 588.97 772.75 599.43 772.75 609.89 772.75 609.89 762.3 620.34 762.3 630.79 762.3 641.25 762.3 641.25 751.84 630.79 751.84 620.34 751.84"/>
  <path class="cls-1" d="m152.05,700.9l346.21,199.88,1.75,1,347.95-200.88v-401.79L501.75,99.23l-1.74-1-347.96,200.88v401.79Zm6.98-43.15h220.84v-10.45h-220.84v-344.14L500,106.28l340.97,196.86v344.14h-199.72v10.45h199.72v39.12l-77.13,44.53h-122.59v10.45h104.49l-245.74,141.88-245.74-141.88h125.61v10.46h31.37v10.45h73.19v-10.45h-31.37v-20.91h-10.45v20.91h-31.36v-10.46h-31.37v-10.45h-143.72l-77.12-44.53v-39.12Z"/>
  <path class="cls-1" d="m500,41.75L103.15,270.87v458.26l396.86,229.12,396.85-229.12v-458.26L500,41.75Zm359.61,665.88l-359.61,207.62-359.62-207.62v-415.26L500,84.76l359.61,207.61v415.26Z"/>
</svg>